. 
  
http://www.torrentday.com/        :     The Hottest Private Tracker On The Net!!!


To Avoid Fakes, ALWAYS Check That The Torrent Was Added By: TvTeam.


               www . TorrentDay . Com 
(((((((((((((= Enjoy No RAR releases =))))))))))))))))))))

...................................NFO:....................................

.                                                                                                     
       
     
     
       
       
     
     
                                         
                                         
                EXVID                    
                                         
         
                                         
         Filled the Archives             
                                         
         
                                         
                With:                    
                                         
         
                                         
                                    
     E240                           
                                    
     SP               (C) 2009      
                                         
     
     
     
                                                                                  
                                                                                   
          The.Penguins.Of.Madagascar.Tagged.DVDRip.XviD-EXViD                       
                                                                                   
                                                                                  
     
                                                                                               
EXViD aims to iNTERNAL those releases which have been lost in the archives.
EXViD aims to PRE non-internal releases which have poor sources and are likely skipped by others.
 
http://www.imdb.com/title/tt0892700/
Subtitles: NL, EN, EN HI, DE, FR
Date: 2011.09

Director: Bret Haaland

Genres:
Animation | Comedy | Family

Plot:
The daily adventures of penguins living in New York's Central Park Zoo. 

Cast:
Credited cast:
Jeff Bennett 	... 	Kowalski (51 episodes, 2008-2011) 
John Di Maggio 	... 	Rico (51 episodes, 2008-2011) 
Tom McGrath 	... 	Skipper (51 episodes, 2008-2011) 
James Patrick Stuart 	... 	Private (51 episodes, 2008-2011) 
Andy Richter 	... 	Mort (50 episodes, 2008-2011) 
Danny Jacobs 	... 	King Julien (49 episodes, 2008-2011) 
Kevin Michael Richardson 	... 	Maurice (49 episodes, 2008-2011) 
Nicole Sullivan 	... 	Marlene (43 episodes, 2009-2011) 
Mary Scheer 	... 	Alice (29 episodes, 2009-2011) 
Conrad Vernon 	... 	Mason (21 episodes, 2009-2011)

Stats:
Format                           : AVI
Format/Info                      : Audio Video Interleave
File size                        : 121 MiB
Duration                         : 11mn 16s
Overall bit rate                 : 1 501 Kbps
Writing application              : VirtualDubMod 1.5.10.2 (build 2540/release)
Writing library                  : VirtualDubMod build 2540/release

Video
ID                               : 0
Format                           : MPEG-4 Visual
Format profile                   : Advanced Simple@L5
Format settings, BVOP            : Yes
Format settings, QPel            : No
Format settings, GMC             : No warppoints
Format settings, Matrix          : Default (H.263)
Muxing mode                      : Packed bitstream
Codec ID                         : XVID
Codec ID/Hint                    : XviD
Duration                         : 11mn 16s
Bit rate                         : 1 043 Kbps
Width                            : 640 pixels
Height                           : 352 pixels
Display aspect ratio             : 16:9
Frame rate                       : 25.000 fps
Color space                      : YUV
Chroma subsampling               : 4:2:0
Bit depth                        : 8 bits
Scan type                        : Progressive
Bits/(Pixel*Frame)               : 0.185
Stream size                      : 84.1 MiB (70%)
Writing library                  : XviD 62

Audio
ID                               : 1
Format                           : AC-3
Format/Info                      : Audio Coding 3
Mode extension                   : CM (complete main)
Codec ID                         : 2000
Duration                         : 11mn 15s
Bit rate mode                    : Constant
Bit rate                         : 448 Kbps
Channel(s)                       : 6 channels
Channel positions                : Front: L C R, Side: L R, LFE
Sampling rate                    : 48.0 KHz
Bit depth                        : 16 bits
Stream size                      : 36.1 MiB (30%)
Alignment                        : Split accross interleaves
Interleave, duration             : 40 ms (1.00 video frame)
Interleave, preload duration     : 500 ms




Release notes:
enjoy!

Looking for:
75TB+ Archives
DUTCH/FLEMiSH Archives
                                                                                                    
Greets: CRBS EPiSODE FiCO FLS iLS KLASSiGER LiPSYNC MADE NODLABS RUNNER SPRiNTER      
   

                                                                    ASCII DONE BY XX^NFO 2oo9